<?xml version="1.0" encoding="utf-8"?>
<!-- Generator: Adobe Illustrator 23.0.1, SVG Export Plug-In . SVG Version: 6.00 Build 0)  -->
<svg version="1.1" id="Layer_1" xmlns="http://www.w3.org/2000/svg" xmlns:xlink="http://www.w3.org/1999/xlink" x="0px" y="0px"
	 viewBox="0 0 213 56" style="enable-background:new 0 0 213 56;" xml:space="preserve">
<style type="text/css">
	.st0{fill:#9D8640;}
</style>
<path class="st0" d="M152.1,40.6c-0.5,0.1-1.7,0.2-2.8-0.1c-0.4-0.1-0.6-0.2-0.8-0.3c-0.5-0.4-0.8-0.9-0.8-1c-0.4-0.9-0.1-1.8,0-2
	c0.2-0.4,0.5-1.1,1.1-1.6c0.3-0.2,1.1-1,2.3-1c0.3,0,0.8,0,1.3,0.3c0.7,0.4,0.9,1.2,1,1.7C153.6,38.4,152.5,40.1,152.1,40.6
	 M148.4,45.2c-3,2.7-4.8,2.9-5.4,2.9c-0.3,0-1.2,0-1.7-0.5c-0.3-0.3-0.4-0.7-0.4-0.8c-0.4-1.9,1.6-4.6,2-5.1c0.8-1,2.4-2.5,4.1-3.9
	c0,0.2-0.1,1.8,1,2.7c0.5,0.4,1,0.6,1.1,0.6c0.5,0.2,0.9,0.2,1.3,0.2c0.4,0,0.8,0,1.4-0.1C150.6,42.9,149.3,44.4,148.4,45.2
	 M106.8,39.7c-0.5,0.1-1.7,0.2-2.8-0.1c-0.4-0.1-0.6-0.2-0.8-0.3c-0.5-0.4-0.8-0.9-0.8-1c-0.4-0.9-0.1-1.8,0-2
	c0.2-0.4,0.5-1.1,1.1-1.6c0.3-0.2,1.1-1,2.3-1c0.3,0,0.8,0,1.3,0.3c0.7,0.4,0.9,1.2,1,1.7C108.3,37.5,107.2,39.1,106.8,39.7
	 M103.1,44.3c-3,2.7-4.8,2.9-5.4,2.9c-0.3,0-1.2,0-1.7-0.5c-0.3-0.3-0.4-0.7-0.4-0.8c-0.4-1.9,1.6-4.6,2-5.1c0.8-1,2.4-2.5,4.1-3.9
	c0,0.2-0.1,1.8,1,2.7c0.5,0.4,1,0.6,1.1,0.6c0.5,0.2,0.9,0.2,1.3,0.2s0.8,0,1.4-0.1C105.3,42,104,43.4,103.1,44.3 M59.5,32.6
	c0.1-0.9,0.5-1.5,1.1-2.2c0.7-0.9,1.3-1.2,1.6-1.3c0.2-0.1,0.7-0.3,0.8-0.1c0.1,0.1-0.1,0.5-0.2,0.7c-0.8,1.3-1.5,2.1-2.4,3.1
	c-0.2,0.2-0.4,0.5-0.8,0.9C59.5,33.6,59.4,33.4,59.5,32.6 M36.9,44c-0.7,0.4-1.2,0.7-1.9,0.9c-0.9,0.4-1.3,0.5-1.5,0.5
	c-0.4,0.1-1,0.2-1.7,0c-0.2-0.1-0.7-0.2-1-0.5c-1-0.9-0.5-2.8-0.4-3.3c0.3-1.2,0.9-1.9,1.6-2.8c0.3-0.3,1.3-1.5,2.9-2.6
	c1-0.7,1.9-1.1,2.7-1.4c1.4-0.6,2.4-0.6,3.2-0.7c1.7,0,3,0.6,3,0.6s-1.3,1.5-2.4,3.1c-1,1.6-1.8,3.5-2.1,4.6
	C38.3,43.1,37.5,43.6,36.9,44 M93.8,13.3c0.3-0.1,1-0.3,1.3,0l0,0c0.5,0.6-0.3,2.1-0.3,2.1c-2.7,5.6-8.6,10.7-8.6,10.7
	c-2,1.8-5,4-9.1,6C77,32.2,88.6,15.3,93.8,13.3 M183.2,13.8c0.3-0.1,1-0.3,1.3,0l0,0c0.5,0.6-0.3,2.1-0.3,2.1
	c-2.7,5.6-8.6,10.7-8.6,10.7c-2,1.8-4.9,4-9.1,6C166.5,32.7,178.1,15.8,183.2,13.8 M189.6,42.7c-0.2,0.1-0.5,0.3-0.9,0.8
	c-0.3,0.3-1.2,1.4-2.2,2.2c-0.6,0.5-1.2,0.9-1.7,1.2c-0.8,0.4-1.4,0.7-2.7,0.9c-0.6,0.1-1.5,0.2-2.2-0.4c-0.1-0.1-0.4-0.3-0.5-0.7
	c0,0-0.2-0.4-0.1-0.9c0.3-2.5,3.4-7.2,3.4-7.2c1.5-2,2.1-2.9,1.8-3.4c-0.2-0.3-0.9-0.4-1.4-0.1c-0.5,0.3-0.9,0.8-1.2,1.5
	c-2.4,2.9-8.1,8.9-13,13.1c-1.8,1.5-4.3,2.5-5,1c-0.8-1.8,0.5-5.8,0.6-7.9c0-0.3,0.1-0.7-0.3-1.1c-0.3-0.3-0.8-0.4-0.8-0.4
	c2.5-0.6,4.1-1.7,5-2.4c2-1.6,2.3-2.9,2.3-3.3c0-0.1,0-0.4-0.2-0.7c-0.2-0.2-0.6-0.3-1-0.3c-1.2,0-2.4,0.8-3,1.1
	c-0.6,0.4-1.5,1.1-2.4,2c0,0,0.9-1.7,1-2l1.1-2c0.1-0.1,0.2-0.5,0.3-0.5c1.9-1,2.3-1.2,5.5-3.2c1.6-1,2.7-2,3.1-2.3
	c0.7-0.6,1.2-1,1.5-1.3c0.6-0.5,1.7-1.6,3-3c0.1-0.1,0.6-0.6,1.1-1.3c0.7-0.8,1.5-1.9,2.6-3.4c2.3-3.2,2.2-4.3,1.8-5
	c-0.1-0.2-0.4-0.4-0.6-0.5c-1.8-0.4-3.8,1.3-4,1.4l0,0c-5.4,3.5-13.5,15.7-13.5,15.7c-1,1.4-2.1,3.6-3.4,6c-1.7,1-4.1,2.1-5,2.5
	c-1.1,0.5-2.4,1-4,1.4c-0.6,0.2-1.2,0.3-1.6,0.3c0.5-0.7,0.8-1.4,0.9-1.8c0.1-0.3,0.3-0.8,0.3-1.4c0-0.4,0-0.8-0.2-1.4
	c-0.1-0.3-0.3-0.8-0.8-1.3c-0.8-0.7-1.7-0.7-2-0.6c-0.2,0-0.7,0-1.3,0.4c-1.4,0.7-2,1.6-2.4,2.3c0,0-4.3,2.1-6.4,5.6
	c-0.3,0.5-0.5,1-0.7,1.4l-1.7,1.6c-1.6,1.5-3.1,2.7-4.2,3.6c0,0-3.7,3-5.5,2.7c-0.8-0.1-1.2-0.5-1.2-0.5c-0.2-0.2-0.3-0.5-0.4-0.7
	c0,0-0.1-0.4,0-0.9c0.2-1.1,2.2-3.6,2.8-4.4c0.7-1,2.2-3.4,1.6-4.1c-0.2-0.2-1.5-1.1-5.7,1.4c0.3-0.4,2.5-4.2,1.7-5.6
	c-0.1-0.3-0.4-0.4-0.4-0.4c-0.5-0.4-1.3-0.5-2.6-0.2c-1.9,0.5-5,2.7-5,2.7c0.4-0.6,1.6-2.6,1.6-3.9c0-0.3-0.1-0.5-0.2-0.7
	c-0.2-0.2-0.8-0.4-1.6,0c-0.4,0.2-1.9,1.1-2.7,1.5l0,0c-1.5,0.9-2.9,1.6-4,2.1c-0.9,0.4-2.1,0.9-3.8,1.3c-0.6,0.2-1.2,0.3-1.6,0.3
	c0.5-0.7,0.8-1.4,0.9-1.8c0.1-0.3,0.3-0.8,0.3-1.4c0-0.4,0-0.8-0.2-1.4c-0.1-0.3-0.3-0.8-0.8-1.3c-0.8-0.7-1.7-0.7-2-0.6
	c-0.2,0-0.7,0-1.3,0.4c-1.4,0.7-1.8,1.5-2.1,2.2c0,0-4.6,2.2-6.6,5.7c-0.2,0.3-0.3,0.6-0.5,1c-1.1,1-3.1,2.9-3.3,3.1
	c-1.5,1.4-3,2.8-4.8,4.4c0,0-4.9,4.3-7.2,4.2c-0.2,0-0.8,0-1.1-0.4c-0.3-0.3-0.3-0.8-0.3-1c0.1-2.1,3.1-6.3,3.1-6.3
	c1.8-2.6,2.9-4.6,3.5-6.9c0.4-1.5,0.4-2.5-0.1-3c-0.7-0.7-2.4-0.5-2.7-0.4c-0.9,0.2-1.5,0.3-3.2,1.2c-2.3,1.2-3.8,2.5-4.1,2.8
	c-0.8,0.7-1.8,1.6-2.8,2.9c0,0,1.5-3.2,1.7-3.5l3.2-6.1c0.1-0.1,0.2-0.5,0.3-0.5c1.9-1,2.3-1.2,5.5-3.2c1.6-1,2.7-2,3.1-2.3
	c0.7-0.6,1.2-1,1.5-1.3c0.6-0.5,1.7-1.6,3-3c0.1-0.1,0.6-0.6,1.1-1.3c0.7-0.8,1.5-1.9,2.6-3.4c2.3-3.2,2.2-4.3,1.8-5
	c-0.1-0.2-0.4-0.4-0.6-0.5c-1.8-0.4-3.8,1.3-4,1.4l0,0C86,17.7,77.9,29.9,77.9,29.9c-1.5,2.1-4.4,8.1-6.6,12.5c-1.3,1-2.3,1.8-3,2.3
	c-0.4,0.3-1,0.8-1.9,1.3c-1.2,0.8-2,1.1-2.2,1.2c0,0-2.2,0.9-3,0.5c-0.1-0.1-0.2-0.1-0.2-0.1s-0.4-0.3-0.5-0.9
	c-0.2-0.9,0.9-2.8,1.3-3.5c0.4-0.6,0.9-1.4,1.6-2.4c0.1-0.1,0.2-0.3,0.3-0.4c0.4-0.6,0.7-1.2,0.8-1.6c0.1-0.3,0.2-0.7,0.3-1.1
	c0.1-0.5,0-0.8,0-0.8c0-0.1-0.1-0.4-0.3-0.7c-0.2-0.3-0.4-0.4-0.5-0.5c-0.6-0.5-1.2-0.6-1.9-0.9c-0.3-0.1-0.7-0.3-1.3-0.7
	c0.4-0.5,0.8-1,1.3-1.6c0.4-0.5,0.8-1,1.2-1.5c0,0,1-1.1,1-2s-1-0.5-1.4-0.3c0,0-1.9,1-2.6,3.3c-0.3,1-0.2,1.6,0.1,2.1
	c-0.7,0.8-2.2,2.5-3.1,3.4l0,0c-2,2.3-3.8,4.3-5.3,5.9c-0.8,0.8-1.5,1.4-1.9,1.8c-1.3,1.2-1.9,1.6-2.4,2c-0.1,0.1-0.4,0.3-0.9,0.6
	c-0.8,0.5-1.5,0.9-2.5,1.3c-1.1,0.4-1.7,0.4-2.3,0.3c-0.1,0-0.2-0.1-0.2-0.1c-0.8-0.2-1.9-1.2-1.7-2.9s1.2-3.8,1.9-5.2
	c0.9-1.8,3.3-5.1,3.8-5.9c0,0,0.5-0.6-0.2-0.9c-0.2-0.1-0.5,0.1-0.5,0.1s-1.3-1.2-4.6-0.9c-1.3,0.1-2.3,0.4-3.1,0.7
	c-0.6,0.2-2,0.8-3.6,2.1c-0.9,0.7-2,1.6-2.8,3.2c-0.2,0.5-0.4,0.9-0.5,1.3c0,0.1-0.2,0.7-0.2,1.2c-0.1,1.1,0.3,2.8,1.6,3.6
	c0.3,0.2,0.7,0.3,0.7,0.3c0.5,0.1,0.9,0.1,1.2,0.1c0.5,0,0.9-0.1,1.3-0.2c0.8-0.2,1.5-0.6,2-0.8c0.7-0.4,1.8-1,2.9-1.8
	c0,0-0.9,2.9-0.2,4.7c0.1,0.3,0.3,0.7,0.6,1c0.1,0.1,0.2,0.2,0.4,0.4c0.6,0.4,1.2,0.6,1.4,0.6c1.3,0.2,2.7-0.5,3.8-1
	c1-0.5,1.6-1,1.8-1.1c2.2-1.5,3.6-3,4.4-3.9c1.5-1.5,3.3-3.5,5.3-5.9l0,0c0,0,1.6-1.9,3.1-3.6c0.7,0.4,0.7,0.4,0.9,0.6
	c1.5,0.8,1.9,1.2,2,1.4c0.1,0.1,0.1,0.2,0.1,0.3c0.3,1-0.2,2.1-1.1,3.8c-0.3,0.6-0.7,1.2-1.5,2.6c-0.4,0.7-1,1.7-1.2,2.9
	c0,0.4-0.1,0.8,0.1,1.2c0.1,0.1,0.2,0.6,0.7,0.9c0.9,0.7,2.1,0.4,2.8,0.2c0.5-0.1,0.9-0.3,1.7-0.7c0.6-0.3,1.1-0.6,1.6-0.9
	c0.7-0.4,1.1-0.7,1.3-0.8c0,0,1.3-1,2.4-1.8c0.3-0.2,0.6-0.4,0.8-0.6c-1.4,2.8-2.3,4.9-2.3,4.9h1c1.6-3.2,3.4-5.4,4.7-6.6
	c1.2-1.2,2.2-2,3.1-2.6c1.4-1,3-1.8,4.8-2.3c1.7-0.5,2.2-0.2,2.3,0c0.4,0.4,0.2,1.1,0,1.8c-0.7,2.4-1.9,4.2-2.2,4.7
	c0,0-2.1,3-4.1,6.6c-0.3,0.5-0.8,1.4-0.7,2.6c0,0.3,0.1,1.3,0.9,1.9c0.8,0.6,1.8,0.5,2.4,0.4c0.7-0.1,1.3-0.4,2.3-1
	c1.1-0.6,1.9-1.2,1.9-1.2c3.2-2.3,7.6-6.6,7.6-6.6c1.1-1,2-1.9,2.8-2.7c-0.7,2.4,0.4,3.8,0.4,3.8s1.3,1.6,4.2,0.5
	c2.9-1.1,6.4-4.7,7.8-7.2c3.3-0.6,5.5-1.5,6.9-2.3c0.3-0.2,1.1-0.6,3-1.6l0,0c2.1-1.2,3.1-1.8,3.4-1.5c0.2,0.2-0.1,0.9-0.5,1.8
	c-1.5,2.7-3.5,5.8-6.7,10.4c-0.2,0.3,0.8,0.5,1.3,0.3c0.5-0.3,4.4-6.3,5.2-7.3c0,0,3-2.7,5.3-3s1.2,2.5,1,3.2
	c-0.3,0.7-1.6,3.2-2.9,5c-0.6,0.9-1.2,1.3-1,1.7c0,0.1,0.2,0.1,0.4,0.2c0.5,0.1,1.1-0.9,1.4-1.3c0.1-0.1,0.4-0.5,0.8-0.9
	c0.4-0.5,0.8-0.8,1.2-1.2c0.2-0.2,0.4-0.3,0.4-0.3c0.4-0.3,0.7-0.5,1-0.6c1.1-0.6,1.6-0.9,2.2-1c0.3-0.1,0.9-0.2,1,0.1
	c0.1,0.1,0,0.3-0.1,0.6c-0.4,0.8-0.7,1.2-0.7,1.2c-0.4,0.6-0.9,1.2-1.3,1.8c-1,1.4-2,2.7-2,4.4c0,0.4,0,1.1,0.5,1.7
	c0.6,0.8,1.5,0.9,1.6,0.9c0.4,0.1,0.8,0,0.9,0c1.2-0.1,3-0.9,6.4-3.7c1.2-1,2.7-2.3,4.3-3.9c-0.4,2.1,0.5,3.3,0.5,3.3
	s1.3,1.6,4.2,0.5s6.4-4.7,7.8-7.2c3.3-0.6,5.3-1.5,6.9-2.3c0.3-0.1,2.1-0.9,3.7-1.8c-1.9,3.7-3.9,8-5.6,11.4c-0.1,0.2,0.9,0.3,1,0.1
	c1.8-3.1,2.8-5.7,3.8-7.5c0.6-1.1,1.7-2.9,3.3-4c0.8-0.6,1.5-1,1.9-1.3c0.5-0.3,1-0.5,1.5-0.4c0.3,0.1,0.4,0.3,0.5,0.4
	c0.2,0.3-0.1,1.3-0.7,2c-0.7,0.7-1.6,1.4-3,2.2c-1.2,0.6-2.6,1.1-3.5,1.3v0.1c0,0,1,0.2,1.4,0.5c0.6,0.6,0.2,2.4-0.1,4
	c-0.5,2.8-0.8,4.2-0.3,5.4c0.8,1.6,3,0.8,3.9,0.3c2.7-1.6,4.8-3.7,5.7-4.6c5.4-5.2,6.4-6.3,8.5-8.9c-0.2,0.6-0.5,1.3-0.9,2.1
	c-0.1,0.1-0.4,0.9-0.6,1.3c-0.3,0.7-0.5,1.2-0.8,1.9c-0.6,1.5-0.6,3.4,0.5,4.2c0.7,0.5,1.6,0.6,2.7,0.5c1.6-0.3,3.5-0.6,6.6-4.1
	c0,0,1.2-1.2,1.2-1.3C189.8,42.6,189.7,42.7,189.6,42.7"/>
<path class="st0" d="M40.6,28c0,0,1.8-2.8,2.3-3.8s1.1-2.9,1.5-3c0.3-0.1,0.5,0.7,0.4,0.9C44.3,23.9,40.6,28,40.6,28"/>
<path class="st0" d="M196.3,33.4c0,0,1.7-2.6,2.1-3.6c0.4-0.9,1.1-2.7,1.4-2.8c0.3-0.1,0.5,0.6,0.4,0.9
	C199.9,29.5,196.3,33.4,196.3,33.4"/>
<path class="st0" d="M187.8,30c0.3-0.2,0.4-0.6,0.4-1c-0.1-0.5-0.5-0.7-0.5-0.7c-0.3-0.2-0.7-0.2-1.1,0.1c-0.4,0.3-0.5,0.8-0.4,1.2
	C186.4,30.1,187.3,30.3,187.8,30"/>
<path class="st0" d="M197.3,48.5c-0.4,0.1-1.1,0.4-1.6,0.1c0,0-0.1-0.1-0.2-0.2c-0.2-0.5,0.3-1.2,0.6-1.5c1.1-1.4,4.1-2.2,4.8-2.3
	C200.3,45.9,199,47.8,197.3,48.5 M211.2,39.9c-1.2,0.8-2.2,1.4-4.5,2.4c-1.1,0.5-2.5,1-4.3,1.6c0.1-0.4,0.2-1,0.4-1.6
	c0.1-0.3,0.4-1.2,1-2.4c0.7-1.3,1.3-2.6,2-3.8c0.1-0.1,0.2-0.4,0.1-0.5c-0.1-0.1-0.4,0-0.4,0s-1.8,0.6-3.2,1.2
	c-1.3,0.6-7.2,3.3-8.5,6.3c0,0-0.4,0.7-0.1,0.9s0.6-0.9,0.7-1c0.8-1.4,2-2.4,3.8-3.6c2.5-1.6,5.2-2.8,6.6-3.2c0,0-2.1,2.8-3.9,7.8
	c-0.5,0.1-1.3,0.3-2.2,0.7c-0.4,0.1-0.7,0.3-1,0.4c-0.8,0.4-1.7,0.9-2.2,1.8c-0.2,0.3-0.8,1.3-0.4,2c0.5,1,2.6,0.6,2.7,0.6
	c0.8-0.2,1.4-0.6,1.8-0.8c0.7-0.5,1.4-1.1,1.9-2.2c0,0,0.5-1,0.7-2.2c0,0,2.7-0.7,5.2-1.9c2.2-1.1,2.7-1.4,4-2.3
	c0.4-0.3,1.4-1.2,1.4-1.5l0,0C212.8,38.5,211.7,39.6,211.2,39.9"/>
<path class="st0" d="M16.3,11.5c-0.1-0.3-0.2-0.8-0.4-1.4c-0.3-0.9-1.6-2.3-3.9-1.9c-2.3,0.3-4.9,2.9-4.9,2.9
	c-0.8,0.7-1.6,1.6-2.4,2.6c-0.4,0.5-0.8,1.1-1.1,1.6c-0.9,1.4-1.5,2.6-1.8,3.5c-0.2,0.5-1,2.8-0.4,4.3c0.1,0.3,0.3,0.5,0.5,0.7
	c0.7,0.5,1.6,0.1,1.6,0.1s1.7-0.7,3-2C7.8,20.6,8,19.4,8,19.4s0.1-0.6-0.5-0.4s-0.6,1-0.8,1.3c-0.4,1.1-1.7,2.5-3.3,3.1
	c-1.5,0.6-1.7-0.6-1.7-0.6c-0.3-1.4-0.1-2.2,0.1-3.1c0.1-0.5,0.5-1.9,2.2-4.4c0.8-1.2,2-2.9,3.8-4.5c0.4-0.2,1.6-1.3,3.1-1.9
	c0.4-0.2,1.2-0.5,1.7-0.5c0.6,0,1,0.3,1.1,0.4c1.1,0.7,1.2,2.2,1.3,2.4c0.3,3.1-0.4,6.1-0.9,7.8c-1.4,4.5-5.5,16.1-7.7,21.1
	c-1.3,2.9-3.7,7.2-5.5,10c-0.6,1-1.5,1.8-0.2,1.7c2.6-0.2,6.1-3.4,8-5.3c-0.1-0.1-0.3,0.1-0.4,0C6.1,48.8,3.8,50,3.8,50
	c-2,1.3-2.9,1.2-2.9,1.2s3-3.4,7.1-12c1.7-3.5,3-6.5,3.3-7.2c0.8-2,0.5-1.4,2.6-6.9c0.6-1.5,0.8-2.1,1.1-3.1
	c0.7-2.2,0.9-3.9,1.2-5.3C16.1,16.4,16.6,13.5,16.3,11.5"/>
<path class="st0" d="M52.9,2.1c-0.2-0.3-0.7-0.6-1.3-0.6c-2.6,0.1-4.2,0.8-5.1,1.3c-4.1,2.1-6.1,4-6.1,4C39.7,7.4,39,8,38.3,8.7
	c0.1,0.1,0.3,0.2,0.4,0.4c2.3-1.9,4.5-3.4,6.5-4.4c3.6-1.8,6.2-1.6,6.2-1.6C52.8,3.1,53,2.4,52.9,2.1"/>
<path class="st0" d="M32.8,26.7c0,0.2-0.1,0.3-0.2,0.4h-0.1c0-0.1,0-0.1,0-0.2c-0.1-0.7-0.4-1.3-0.9-1.8c-0.1-0.1-0.2-0.2-0.3-0.3
	c-0.1-0.2-0.3-0.3-0.5-0.4c-0.1-0.1-0.2-0.2-0.3-0.3c-0.1-0.2-0.3-0.3-0.5-0.4c-0.5-0.2-1-0.3-1.6-0.3c-0.1,0-0.2,0-0.3,0
	c-0.6,0-1.2,0.1-1.8,0.4l-0.1,0.1c0,0-0.1,0-0.1-0.1s0-0.1,0-0.2c0.1-0.2,0.1-0.5,0.1-0.7c0-0.5-0.2-0.9-0.6-1.2
	c-0.2-0.1-0.4-0.3-0.6-0.4c-0.3-0.2-0.4-0.4-0.4-0.7c0.1-0.6-0.3-0.9-0.9-0.7c-0.2,0.1-0.4,0.3-0.6,0.5c0,0.1-0.1,0.1-0.1,0.2
	c-0.1,0.3-0.2,0.3-0.4,0.1c-0.1-0.1-0.3-0.2-0.4-0.3c-0.2-0.2-0.5-0.3-0.8-0.3c-0.1,0-0.2,0-0.2-0.1c-0.1-0.1-0.1-0.1-0.2-0.2
	c-0.2-0.2-0.5-0.2-0.7,0c-0.1,0-0.1,0.1-0.2,0.1s-0.1,0-0.2,0c-0.1-0.1-0.1-0.1,0-0.2c0.2-0.2,0.5-0.4,0.8-0.5
	c0.1,0,0.2-0.1,0.3-0.1c0.5-0.1,0.9,0.1,1.2,0.4l0.1,0.1c0.1,0.1,0.2,0,0.2-0.1s0-0.2,0-0.2c0-0.2,0.1-0.4,0.3-0.4
	c0.4-0.1,0.7-0.1,1,0.2l0.1,0.1c0.3,0.3,0.6,0.4,1,0.5c0.2,0,0.4,0.1,0.6,0.2s0.3,0.2,0.3,0.5c0,0.4,0.2,0.5,0.5,0.5
	c0.2,0,0.3,0,0.5,0s0.4,0.1,0.6,0.2s0.3,0.3,0.3,0.6c0,0.4-0.1,0.7-0.3,1c-0.1,0.1-0.2,0.2-0.2,0.4v0.1c0,0.1,0.1,0,0.1,0
	s0.1,0,0.1-0.1c0.4-0.3,0.8-0.3,1.2-0.3c0.6,0,1.3,0.1,1.9,0.2c0.3,0.1,0.5,0.3,0.7,0.6c0.1,0.2,0.3,0.5,0.2,0.8v0.1
	c0,0.1,0.1,0.2,0.2,0.1c0.2-0.1,0.4-0.1,0.6,0c0.2,0.1,0.4,0.3,0.5,0.5c0.2,0.3,0.2,0.8,0.2,1.2C32.8,26.4,32.8,26.6,32.8,26.7
	 M32.1,27.4C32,27.6,32,27.8,32,27.9S31.9,28,31.9,28c-0.1,0,0-0.1,0-0.2c0-0.2,0-0.5-0.1-0.7c-0.1-0.3-0.2-0.5-0.2-0.8
	c-0.1-0.2-0.2-0.3-0.3-0.5c-0.1-0.1-0.2-0.2-0.2-0.2c-0.1-0.1-0.2-0.3-0.2-0.5V25c0-0.1-0.1-0.3,0-0.4c0.1,0,0.2,0.2,0.3,0.3
	c0.1,0.1,0.2,0.2,0.3,0.3c0.4,0.4,0.6,0.8,0.7,1.3C32.2,26.9,32.2,27.2,32.1,27.4 M31.5,28.4c0,0.3-0.2,0.5-0.4,0.7
	c-0.5,0.3-1.1,0.4-1.6,0.3c-0.4-0.1-0.7-0.2-1.1-0.3c0,0-0.1,0-0.1-0.1v-0.1c0.2-0.1,0.4-0.2,0.7-0.3c0.2-0.1,0.5-0.2,0.7-0.2
	c0.1,0,0.3-0.1,0.4-0.2c0-0.1-0.1-0.1-0.1-0.1c-0.1,0-0.2,0-0.4,0c-0.5,0.1-1.1,0.3-1.5,0.6c-0.7,0.4-1.4,0.7-2.1,1.1
	c-0.3,0.2-0.7,0.4-1.1,0.6c-0.6,0.3-1.2,0.5-1.8,0.7c-0.5,0.1-1,0.1-1.5,0c-0.1,0-0.2,0-0.2-0.1c0.1-0.1,0.3-0.1,0.4-0.1
	c0.8-0.1,1.5-0.4,2.1-0.9c0.4-0.3,0.6-0.5,0.7-0.6c0.1-0.2,0.3-0.3,0.3-0.5c0,0-0.1,0.1-0.2,0.1c0,0,0,0-0.1,0.1
	c-0.3,0.2-0.5,0.5-0.8,0.7c-0.7,0.7-1.6,0.9-2.6,0.9c-0.2,0-0.4,0-0.6-0.1c0,0,0,0,0-0.1v-0.1c0.1,0,0.1-0.1,0.2-0.1
	c0.6-0.1,1.1-0.3,1.6-0.6c0.3-0.2,0.5-0.4,0.8-0.5c0.1,0,0.1-0.1,0.2-0.2c0.2-0.2,0.3-0.3,0.3-0.4c-0.1,0-0.1,0-0.2,0.1l-0.1,0.1
	c-0.6,0.5-1.2,0.9-1.9,1.2c-0.3,0.1-0.6,0.2-0.9,0.2c-0.1,0-0.2,0-0.2-0.2c-0.1-0.3-0.1-0.5,0-0.8c0-0.1,0.4-1.3,0.7-1.9l0.1-0.2
	c0,0,0,0-0.1,0S21,27.2,21,27.2c-0.1,0.1-0.2,0.2-0.2,0.3c-0.2,0.3-0.3,0.7-0.4,1c-0.1,0.4-0.2,0.7-0.3,1.1c0,0,0,0.1-0.1,0.1
	c0,0-0.1,0-0.1-0.1c-0.1-0.3-0.2-0.6-0.2-0.9s0-0.5,0.1-0.7c0-0.1,0.1-0.2,0.1-0.2s-0.1,0-0.1,0.1c-0.1,0.1-0.1,0.2-0.1,0.2
	c-0.1,0.3-0.1,0.5-0.1,0.5c0,0.2,0,0.4,0,0.8c0,0.1,0,0.3,0,0.4c-0.1-0.1-0.1-0.2-0.2-0.3c-0.4-0.7-0.3-1.3-0.2-1.8
	c0.2-1,0.7-1.9,1.3-2.7l0.1-0.1c0.3-0.6,0.6-1.1,0.9-1.6c0.2-0.4,0.3-0.8,0.4-1.2c0-0.1,0-0.1,0-0.2v-0.1c0,0-0.1,0-0.1,0.1
	c-0.1,0.2-0.1,0.4-0.2,0.5c-0.1,0.6-0.4,1.1-0.8,1.6l-0.1,0.1c0,0-0.1,0-0.1-0.1s0-0.2,0-0.2c0-0.5-0.2-0.9-0.4-1.4
	C20,22.1,19.8,22,19.5,22c-0.2,0-0.4,0-0.6-0.1s-0.3-0.4-0.3-0.6s0.2-0.3,0.4-0.2c0.1,0.1,0.2,0.1,0.3,0.2c0.1,0,0.1,0,0.1,0
	s0-0.1,0-0.2s-0.1-0.2-0.2-0.2s-0.1-0.1-0.1-0.2c0-0.3,0.1-0.4,0.3-0.4c0.2,0,0.4,0.1,0.5,0.3c0,0.1,0.1,0.2,0.1,0.3
	c0,0.1,0.1,0.1,0.2,0.1c0,0,0.1,0,0.1-0.1s0-0.2,0-0.3c0-0.1,0-0.2,0.1-0.3c0.1-0.1,0.2-0.2,0.3-0.2c0.2,0,0.3,0.2,0.4,0.3
	c0,0.1,0,0.2,0,0.2c0,0.1,0,0.1,0.1,0.2l0.1,0.1c0,0,0.1,0,0.1-0.1v-0.1c0.1-0.2,0.2-0.3,0.4-0.2c0.1,0,0.2,0.1,0.3,0.2
	c0.2,0.2,0.4,0.3,0.6,0.5s0.3,0.4,0.3,0.7c0,0.3,0,0.6-0.1,0.9v0.1c0,0.1,0,0.1,0,0.2s0,0.2,0,0.2s0.2-0.3,0.2-0.7
	c0.1-0.4,0.1-0.8,0-1.2c0-0.2,0-0.3,0-0.4c0.1-0.3,0.2-0.5,0.5-0.7c0.1-0.1,0.2-0.1,0.3-0.1c0.2,0,0.4,0,0.4,0.3v0.1
	c-0.1,0.4,0.1,0.7,0.5,1c0.2,0.1,0.3,0.2,0.5,0.3c0.1,0.1,0.2,0.1,0.3,0.2c0.2,0.2,0.3,0.4,0.3,0.7c0,0.3,0,0.6-0.1,0.9
	c-0.3,0.7-0.7,1.4-1.2,2.1c-0.2,0.2-0.4,0.5-0.6,0.7c-0.4,0.5-0.8,0.9-1.3,1.4c0,0-0.1,0.1-0.1,0.2v0.1h0.1c0,0,0,0,0.1,0
	c0.3-0.3,0.6-0.7,0.9-1s0.5-0.6,0.8-0.9s0.6-0.7,0.8-1.1c0.2-0.3,0.5-0.6,0.7-0.8c0.3-0.3,0.7-0.4,1.2-0.5c0.6-0.1,1.2-0.1,1.9,0
	c0.3,0,0.6,0.2,0.8,0.3c0.3,0.2,0.5,0.5,0.6,0.9c0.1,0.2,0,0.4-0.2,0.6c-0.1,0-0.1,0.1-0.2,0.1c-0.1,0.1-0.1,0.1,0,0.2l0.1,0.1
	c0.3-0.1,0.5,0,0.6,0.2c0.2,0.2,0.3,0.4,0.4,0.6c0,0.1,0.1,0.3,0.1,0.4C31.5,27.5,31.5,27.9,31.5,28.4 M20.2,31.2
	c-0.3,0.1-0.6,0.2-0.9,0.3c-0.1,0-0.1,0.1-0.2,0.1c0,0-0.1,0-0.1-0.1v-0.1c0.1-0.4,0.1-0.9,0.1-1.3c0-0.1,0-0.2,0-0.2
	c0-0.1,0-0.3,0.1-0.3s0.2,0.2,0.2,0.3c0.3,0.4,0.6,0.7,1,0.9c0.1,0.1,0.2,0.1,0.3,0.3C20.6,31.2,20.4,31.2,20.2,31.2 M11.5,41.4
	c-0.1-0.4-0.1-0.8-0.2-1.2c-0.1-0.4-0.2-0.8-0.3-1.3c-0.1-1.1-0.1-2.1,0.1-3.1c0.1-0.5,0.2-0.9,0.4-1.4c0.1-0.4,0.4-0.8,0.6-1.2
	c0.4-0.6,0.7-1.2,1-1.8c0-0.1,0.1-0.1,0.1-0.1l0,0c0.2,0.7,0.4,1.4,0.6,2.1c0.2,0.3,0.2,0.7,0.2,1.1c0,0.6,0,1.1-0.1,1.7
	c-0.1,0.4,0,0.8-0.1,1.2c0,0.1-0.1,0.3-0.1,0.4c-0.3,1-0.7,2-1.3,2.9c-0.2,0.3-0.4,0.5-0.6,0.7C11.6,41.5,11.5,41.4,11.5,41.4
	 M12.5,43.1c0.1-0.1,0.2-0.2,0.3-0.3c0.2-0.3,0.4-0.5,0.6-0.8c0.7-0.9,1.5-1.6,2.5-2.2c0.3-0.2,0.7-0.4,1.1-0.6
	c1.1-0.6,2.2-1.2,3.4-1.7c0.3-0.1,0.7-0.3,1-0.4c0.5-0.2,1.1-0.5,1.5-0.8c0.2-0.2,0.5-0.4,0.8-0.5c0.3-0.2,0.6-0.5,0.8-0.7
	c0.4-0.3,0.7-0.7,1.1-1c0.1-0.1,0.2-0.2,0.3-0.2c0.1-0.1,0.2-0.2,0.3-0.2c0.1,0.1-0.1,0.2-0.1,0.3c-0.4,0.5-0.6,1.1-1,1.6
	c-0.2,0.3-0.4,0.5-0.5,0.8c-0.2,0.4-0.5,0.8-0.7,1.2c-0.3,0.5-0.6,1-1,1.4c-0.5,0.6-1,1.1-1.6,1.7c-0.1,0.1-0.1,0.2-0.2,0.2
	c-0.8,0.7-1.6,1.3-2.6,1.8c-0.6,0.3-1.3,0.5-1.9,0.6c-0.7,0.2-1.5,0.3-2.2,0.3c-0.3,0-0.6,0-1,0c-0.2,0-0.4,0-0.6,0
	c0,0-0.1,0-0.1-0.1s0-0.1,0.1-0.1c0.6-0.4,1.3-0.8,2-1c1.6-0.7,3.1-1.3,4.7-2.1c0.2-0.1,0.4-0.2,0.6-0.3c0.7-0.3,1.2-0.8,1.8-1.2
	c0.2-0.1,0.3-0.3,0.5-0.4c0.3-0.3,0.6-0.6,0.8-1c0.1-0.2,0.3-0.4,0.3-0.7c-0.2,0.2-0.4,0.3-0.5,0.5c-0.4,0.7-1,1.2-1.6,1.7
	c-0.8,0.7-1.8,1.1-2.8,1.6s-2.1,1-3.1,1.4c-0.1,0-0.1,0.1-0.2,0.1c-0.9,0.3-1.7,0.8-2.6,1.3c-0.1,0-0.2,0.1-0.2,0.1h-0.1
	C12.5,43.1,12.5,43.1,12.5,43.1 M33.1,26.3c0-0.3,0-0.6,0-0.8c-0.1-0.4-0.3-0.6-0.5-0.9c-0.2-0.2-0.4-0.3-0.6-0.3
	c-0.1,0-0.2-0.1-0.2-0.2c0-0.3-0.2-0.5-0.4-0.8c-0.2-0.2-0.4-0.4-0.7-0.5c-0.8-0.2-1.6-0.3-2.5-0.2c-0.4,0.1-0.4,0-0.2-0.3
	c0.1-0.2,0.1-0.5,0.1-0.7S28,21.2,27.8,21c-0.3-0.2-0.5-0.4-0.9-0.4c-0.1,0-0.3,0-0.4,0c-0.2,0-0.2,0-0.2-0.2c0-0.3-0.2-0.6-0.5-0.7
	c-0.2-0.1-0.4-0.2-0.6-0.2c-0.4-0.1-0.7-0.2-1-0.5s-0.7-0.3-1.1-0.3c-0.3,0-0.5,0.1-0.7,0.4c-0.1,0.1-0.1,0.1-0.2,0.1
	s-0.2-0.1-0.3-0.1C21.7,19,21.5,19,21.3,19c-0.6,0.1-1,0.3-1.5,0.7c-0.1,0.1-0.2,0.2-0.4,0.2c-0.1,0-0.2,0-0.3,0.1
	c-0.2,0.1-0.3,0.2-0.3,0.4v0.1c0,0.1,0,0.2-0.1,0.2s-0.1,0.1-0.2,0.1c-0.2,0.2-0.3,0.4-0.2,0.7c0.1,0.3,0.3,0.5,0.6,0.6
	c0.2,0.1,0.4,0.1,0.6,0.1s0.3,0.1,0.4,0.3c0.2,0.4,0.4,0.7,0.4,1.1c0,0.3,0,0.5,0,0.8c0,0.2-0.1,0.4-0.2,0.5s-0.2,0.3-0.3,0.4
	c-0.4,0.6-0.7,1.2-0.8,1.9c-0.1,0.5-0.2,1.1,0,1.6c0,0.1,0,0.3,0,0.4c-0.1,0.3-0.1,0.5-0.2,0.8c0,0.4-0.1,0.7-0.1,1.1
	c0,0.2,0,0.3-0.1,0.5c-0.2,0.4-0.4,0.9-0.7,1.2c-0.4,0.4-0.8,0.9-1.2,1.3c-0.2,0.3-0.4,0.5-0.6,0.9c-0.4,0.7-0.8,1.4-1.2,2.2
	c-0.2,0.4-0.4,0.8-0.6,1.2c-0.2,0.3-0.3,0.6-0.5,0.9c-0.3,0.4-0.6,0.8-0.9,1.3c-0.1,0.2-0.3,0.5-0.5,0.7c-0.2,0.3-0.5,0.5-0.6,0.8
	c-0.1,0.1-0.1,0.2-0.2,0.2h-0.1c0,0,0,0,0-0.1c0-0.2,0.2-0.4,0.3-0.6c0.3-0.3,0.6-0.7,0.8-1.1c0.1-0.2,0.2-0.3,0.3-0.5
	c0.5-0.8,0.8-1.7,1-2.7c0.2-0.8,0.2-1.7,0.3-2.5c0-0.6,0-1.2-0.1-1.8c-0.1-0.4-0.2-0.9-0.4-1.3c-0.1-0.3-0.1-0.5-0.2-0.8
	c0-0.2,0-0.4,0-0.6c0.1-0.4,0.2-0.7,0.2-1.1c0.1-0.5,0.1-1,0.2-1.4c0-0.1,0-0.3,0-0.4s0-0.1-0.1-0.2c-0.1,0-0.1,0.1-0.1,0.1
	c-0.1,0.6-0.2,1.3-0.3,1.9c-0.1,0.7-0.3,1.4-0.6,2.1c-0.2,0.4-0.4,0.7-0.6,1.1c-0.3,0.5-0.6,1-0.8,1.5c-0.4,0.8-0.6,1.6-0.7,2.5
	c-0.1,1.3-0.1,2.5,0.2,3.7c0.2,0.6,0.3,1.3,0.3,2c0,0.1,0,0.7-0.1,0.8c-0.2,0.3-0.4,0.5-0.6,0.8c-0.3,0.5-0.5,0.8-0.9,1.3
	c-0.2,0.2-0.6,0.7-0.8,0.9s-0.6,0.7-0.9,0.8c0.1,0,0.4-0.1,0.5,0c0.1-0.1,0.1-0.1,0.2-0.2c0.2-0.2,0.4-0.4,0.6-0.6
	c0.4-0.4,0.7-0.8,1-1.2c0.1-0.1,0.1-0.1,0.2-0.2c0.4,0,0.8-0.2,1.1-0.5c0.2-0.2,0.4-0.2,0.7-0.2c0.2,0,0.4,0,0.6-0.1
	c0.1,0,0.2,0,0.4,0c1.1,0,2.2-0.1,3.3-0.3c1-0.2,2-0.5,2.9-1.1c0.9-0.5,1.7-1.1,2.4-1.9c0.6-0.7,1.2-1.3,1.7-1.9
	c0.2-0.3,0.5-0.6,0.6-1c0.2-0.4,0.4-0.8,0.7-1.2c0.4-0.5,0.7-1,1-1.6s0.7-1.1,1.1-1.6c0.2-0.3,0.4-0.5,0.7-0.7
	c0.4-0.2,0.8-0.4,1.2-0.6c0.1,0,0.2-0.1,0.3-0.1c0,0,0,0,0-0.1c0,0,0,0-0.1,0s-0.2,0-0.3,0c-0.7,0.2-1.3,0.4-1.9,0.9
	c0,0-0.1,0.1-0.2,0.1c-0.7,0.5-1.4,1.1-2.1,1.7c-0.7,0.6-1.4,1.2-2.1,1.7c-0.3,0.2-0.7,0.4-1.1,0.6c-0.4,0.2-0.9,0.3-1.3,0.5
	c-1,0.4-2,0.9-3,1.5c-0.8,0.4-1.6,0.8-2.3,1.4c-0.5,0.4-1,0.8-1.4,1.3c-0.5,0.5-0.8,1.1-1.3,1.6c-0.2,0.2-0.3,0.3-0.4,0.5
	c-0.3,0.3-0.6,0.5-0.9,0.8c-0.1,0-0.1,0.1-0.2,0.1h-0.1v-0.1c0-0.1,0.1-0.1,0.1-0.2c0.2-0.5,0.6-0.8,0.9-1.2
	c0.7-0.8,1.3-1.6,1.9-2.4c0.3-0.5,0.7-0.9,1-1.5c0.6-1.1,1.2-2.2,1.8-3.3c0.4-0.8,1-1.4,1.5-2.1c0.2-0.3,0.5-0.5,0.6-0.8
	c0.3-0.4,0.6-0.7,1.1-0.9c0.3-0.1,0.6-0.2,0.9-0.3c0.2,0,0.4-0.1,0.6-0.1c0.1-0.1,0.3-0.1,0.4,0c0.5,0.2,1.1,0.2,1.7,0.1
	s1.1-0.3,1.6-0.6c0.8-0.4,1.6-0.9,2.4-1.3c0.3-0.2,0.5-0.2,0.8-0.2c0.2,0,0.4,0.1,0.6,0.1c0.3,0.1,0.6,0.1,0.8,0.2
	c0.4,0.1,0.9,0,1.3,0c0.1,0,0.2-0.1,0.2-0.1c0.3-0.1,0.5-0.3,0.7-0.5c0.1-0.1,0.1-0.2,0.2-0.2c0.2-0.1,0.3-0.3,0.4-0.5
	c0.1-0.3,0.3-0.5,0.5-0.7c0.3-0.3,0.5-0.6,0.5-1C33.1,26.4,33.1,26.3,33.1,26.3"/>
<path class="st0" d="M40.8,15.9L40.8,15.9c0.3-0.6,0.1-1.1-0.1-1.7c0-0.1-0.1-0.1-0.2,0c-0.1,0.2-0.3,0.4-0.4,0.6
	C40,15,40,15.1,40.2,15.3C40.4,15.6,40.6,15.7,40.8,15.9C40.7,15.9,40.7,15.9,40.8,15.9 M27.6,16.8c0,0.3,0,0.6,0.1,0.8
	c0.1,0.4,0.1,0.4,0.4,0.1c0.4-0.3,0.8-0.6,1.1-0.8c0.1-0.1,0.1-0.1,0-0.2c-0.5-0.2-0.9-0.6-1.3-0.9c-0.1-0.1-0.1,0-0.2,0.1
	C27.7,16.2,27.6,16.6,27.6,16.8 M35.9,16.5C36,16.5,36,16.6,35.9,16.5c0.4,0.3,0.7,0.5,1,0.7c0.3,0.2,0.6,0.3,0.9,0.3
	c0.4,0.1,0.9,0,1.3-0.2c0.1,0,0.1-0.1,0-0.2c-0.5-0.3-1-0.6-1.5-0.7c-0.2,0-0.4-0.1-0.6-0.1c-0.2,0-0.5,0-0.7,0
	C36.2,16.4,36.1,16.4,35.9,16.5 M34.3,6L34.3,6c0,0.2,0,0.3,0,0.5c0,0.1,0,0.2,0.1,0.3C34.7,7,35,7.3,35.3,7.4
	c0.5,0.2,0.9,0.3,1.3,0.6h0.1c0,0,0,0,0-0.1c0-0.3-0.2-0.6-0.4-0.8c-0.2-0.2-0.4-0.4-0.7-0.5S35.1,6.3,35,6
	c-0.1-0.1-0.1-0.2-0.2-0.3c-0.1-0.1-0.2-0.2-0.3-0.2c-0.1-0.1-0.2,0-0.2,0.1C34.3,5.8,34.3,5.9,34.3,6 M28.4,10c0,0.2,0,0.4-0.1,0.5
	v0.1h0.1c0.4-0.5,0.6-1,0.6-1.6c0-0.3-0.1-0.7-0.2-1c-0.2-0.5-0.2-1.1-0.1-1.7c0-0.1,0-0.2,0-0.3l-0.1-0.1c-0.1,0-0.1,0-0.2,0.1
	c-0.5,0.3-0.7,0.7-0.7,1.3c0,0.4,0.1,0.8,0.3,1.2c0.1,0.1,0.1,0.3,0.2,0.4C28.4,9.3,28.5,9.7,28.4,10 M23.2,15.6
	c-0.2-0.1-0.5-0.2-0.7-0.3c-0.4-0.1-0.9-0.2-1.3-0.3c-0.7-0.2-1.3-0.5-1.9-0.9c-0.1-0.1-0.2-0.2-0.3-0.2v-0.1h0.1
	c0.3,0.2,0.6,0.3,0.9,0.5c0.4,0.3,0.9,0.4,1.4,0.5c0.6,0.1,1.1,0.2,1.7,0.4c0.1,0,0.2,0.1,0.2,0v-0.1c-0.4-0.5-0.9-1-1.6-1.3
	c-0.6-0.2-1.1-0.5-1.7-0.6s-1.1-0.2-1.7-0.3c-0.2,0-0.4-0.1-0.6-0.1h-0.1v0.1c0.5,0.7,0.9,1.4,1.6,1.9c0.1,0.1,0.2,0.1,0.3,0.2
	c0.5,0.4,1.2,0.6,1.8,0.7c0.4,0.1,0.9,0.1,1.3,0.1C22.8,15.9,23,15.8,23.2,15.6 M35.4,19.4c0-0.1-0.3-0.1-0.4-0.2
	c-0.1-0.1-0.3-0.1-0.4-0.2c-0.7-0.3-1.4-0.4-2.2-0.3c-0.1,0-0.2,0-0.2,0c-0.6,0.1-1.1,0.2-1.6,0.4c-0.6,0.3-1.3,0.6-1.9,0.9
	c-0.1,0-0.3,0.1-0.3,0.2c0.1,0.1,0.5,0.2,0.7,0.3c0.8,0.3,1.6,0.5,2.4,0.3c0.8-0.1,1.5-0.4,2.2-0.7c0.5-0.2,1-0.5,1.5-0.7
	C35.1,19.5,35.3,19.5,35.4,19.4 M25,14.7c0-0.1,0-0.2,0-0.2c0-0.7,0-1.4,0-2.1c0-0.5,0.1-1.1,0-1.6c-0.1-0.6-0.1-1.1-0.3-1.7
	c-0.2-0.7-0.4-1.4-0.5-2.1c0-0.2-0.1-0.4-0.1-0.6c0,0,0-0.1-0.1-0.1c0,0-0.1,0-0.1,0.1l0,0C23.6,7,23.3,7.5,23,8.1
	c-0.2,0.4-0.3,0.7-0.4,1.1c-0.1,0.5-0.1,1,0,1.5c0,0.4,0.1,0.7,0.2,1.1c0.1,0.6,0.4,1.2,0.8,1.7c0.2,0.3,0.4,0.5,0.7,0.7
	c0,0,0,0,0.1,0l0,0c0-0.1,0-0.1,0-0.2c-0.2-0.7-0.4-1.4-0.5-2.1c-0.1-0.5-0.2-1.1-0.2-1.6c0-0.4,0-0.9,0.1-1.3c0,0.2,0,0.3,0,0.5
	c0,0.4,0,0.9,0.1,1.3c0.2,1,0.4,2,0.7,3C24.6,14.2,24.7,14.4,25,14.7 M27.4,19.9c0.1-0.1,0.1-0.2,0.1-0.3c0.1-0.6,0.1-1.2-0.1-1.8
	c-0.2-0.7-0.1-1.3,0.2-1.9c0-0.1,0-0.1,0-0.2c-0.4-0.5-0.4-1.2-0.4-1.8c0-0.7,0.2-1.3,0.5-1.9c0.1-0.2,0.1-0.3,0.2-0.5
	c0-0.2,0.1-0.5,0.1-0.7s0.1-0.4,0.1-0.6c0.1-0.4,0-0.8-0.3-1.1c-0.2-0.3-0.4-0.7-0.4-1.1c-0.1-0.5,0.1-1,0.3-1.4
	c0.1-0.2,0.3-0.3,0.5-0.4c0.1,0,0.1-0.1,0.2-0.1c0.3,0,0.4-0.2,0.4-0.4c0.1-0.2,0.2-0.3,0.3-0.4C29.4,5,29.9,5,30.2,5.2
	c0.3,0.2,0.5,0.2,0.8,0.1c0.1,0,0.2-0.1,0.3-0.2C31.5,5,31.8,4.9,32,4.8c0.2-0.1,0.4-0.1,0.5,0.1c0.2,0.2,0.4,0.3,0.7,0.3
	s0.5,0,0.7,0.3c0.1,0.1,0.2,0.1,0.3,0.1c0.4,0,0.6,0.2,0.8,0.4c0,0,0,0.1,0.1,0.1c0.2,0.3,0.4,0.6,0.8,0.8c0.3,0.1,0.5,0.4,0.7,0.6
	s0.2,0.4,0.3,0.6c0.1,0.3,0.2,0.7,0.1,1c0.1,0.1,0.2,0,0.3,0s0.3,0,0.4,0c0.3,0,0.4,0.2,0.6,0.4c0,0.1,0.1,0.1,0.1,0.2
	c0.1,0.2,0.2,0.3,0.3,0.4c0.2,0.1,0.3,0.3,0.4,0.5c0,0.1,0.1,0.1,0.2,0.1c0.1,0,0.3,0,0.4,0.1c0.6,0.2,0.9,0.8,0.6,1.4
	c0,0.1,0,0.1-0.1,0.1c-0.1,0.1-0.1,0.3,0,0.4c0.2,0.3,0.1,0.6-0.3,0.8h-0.1c0,0-0.1-0.1,0-0.1c0-0.1,0.1-0.1,0.1-0.2
	c0-0.1,0-0.2,0-0.3s-0.1-0.2-0.3-0.2c-0.1,0-0.2,0.1-0.3,0h-0.1v-0.1l0.1-0.1c0.1,0,0.1-0.1,0.2-0.1c0.4-0.3,0.5-0.7,0.3-1.1
	c-0.3-0.5-0.8-0.5-1.1-0.2c-0.1,0-0.1,0.1-0.2,0.1c-0.4,0.4-1,0.6-1.5,0.8l0,0h-0.1v-0.1c0.2-0.1,0.4-0.2,0.6-0.3
	c0.3-0.1,0.6-0.3,0.8-0.6c0.1-0.1,0.1-0.2,0.2-0.3c0.1-0.1,0-0.3-0.1-0.4c0,0-0.1-0.1-0.2-0.1c-0.2-0.1-0.3-0.2-0.3-0.4
	c0,0,0-0.1-0.1-0.1c-0.2-0.4-0.5-0.5-0.9-0.4c-0.2,0.1-0.5,0.2-0.7,0.3c-0.8,0.7-1.7,1.3-2.7,1.8c-0.2,0.1-0.4,0.2-0.6,0.3
	c-0.5,0.2-0.9,0.5-1.3,0.7c-0.1,0.1-0.2,0.2-0.3,0.4c0,0-0.1,0.1-0.2,0.3c0,0,0,0-0.1,0.1s-0.1,0.2-0.1,0.2s0-0.1,0-0.2v-0.1
	c0.2-0.5,0.7-0.9,0.7-0.9c0.4-0.2,0.8-0.5,1.3-0.6c0.4-0.2,0.8-0.4,1.2-0.7c0.3-0.2,0.6-0.4,0.9-0.6s0.6-0.5,0.9-0.7
	c0.1-0.1,0.2-0.2,0.3-0.3c0.1-0.1,0.1-0.1,0.1-0.2V9c0-0.5-0.2-0.7-0.6-0.9c-0.3-0.1-0.5-0.2-0.8-0.3c-0.4-0.1-0.7-0.4-1-0.6
	C34.1,6.9,34,6.7,34,6.4c0-0.2,0-0.4,0-0.5c0-0.2-0.1-0.4-0.3-0.6c-0.1-0.1-0.2-0.2-0.4-0.1c-0.1,0-0.2,0-0.4,0s-0.4-0.1-0.6-0.3
	c-0.1-0.1-0.2-0.1-0.4-0.1c-0.2,0.1-0.4,0.1-0.5,0.2c-0.2,0.1-0.5,0.3-0.7,0.3c-0.1,0-0.2,0.1-0.2,0.2s0,0.2,0,0.2
	c0,0.1-0.2,0.2-0.2,0.2s0-0.1,0-0.3l0,0c0.1-0.5-0.2-0.7-0.7-0.6c-0.3,0.1-0.4,0.2-0.5,0.4c-0.3,0.7-0.4,1.4-0.3,2.2
	c0.1,0.2,0.1,0.5,0.2,0.7s0.1,0.4,0.1,0.6c0.1,0,0.1-0.1,0.1-0.1c0.1-0.3,0.2-0.6,0.2-0.9c0,0,0-0.1,0-0.2s0.1-0.3,0.1-0.3l0.1,0.3
	c0,0.2,0,0.4-0.1,0.6c-0.1,0.3-0.2,0.6-0.2,0.9c0,0.1-0.1,0.3-0.2,0.4s-0.2,0.3-0.3,0.4c0.2,0.2,0.1,0.3,0,0.5s-0.2,0.3-0.3,0.5
	c-0.2,0.3-0.7,1.3-0.7,1.4c-0.2,0.6-0.3,1.2-0.2,1.9c0,0.2,0,0.3,0.1,0.5c0.1,0,0.1-0.1,0.1-0.2c0-0.4,0-0.7,0.2-1.1
	c0,0,0-0.1,0.1-0.2c0.1-0.1,0.1-0.1,0.1-0.1s0,0,0,0.2c0,0.1,0,0.1,0,0.1C28,13.7,28,14.2,28,14.6c0,0.2,0,0.4,0.2,0.6
	c0.1-0.2,0.1-0.3,0.2-0.5c0.1-0.4,0.3-0.8,0.6-1.2c0.2-0.3,0.3-0.4,0.6-0.6c0,0.1-0.1,0.2-0.1,0.2c-0.5,0.6-0.8,1.2-0.9,1.9
	c0,0.3-0.1,0.5,0,0.8c0,0.1,0.1,0.2,0.2,0.1c0.3-0.1,0.5-0.2,0.8-0.4s0.7-0.5,1-0.7c0.2-0.2,0.3-0.3,0.8-0.8
	c0.1-0.1,0.2-0.2,0.3-0.3v0.1c0,0,0,0,0,0.1c-0.2,0.4-0.4,0.7-0.8,0.9c-0.6,0.4-1.1,0.8-1.7,1.1L29.1,16v0.1
	c0.2,0.1,0.3,0.2,0.5,0.2c0.4,0,0.9-0.1,1.3-0.2c0.4-0.2,0.7-0.4,1.1-0.6c0.1-0.1,0.2-0.1,0.2-0.2c0.1-0.1,0.1-0.1,0.1-0.1
	s0,0.2-0.1,0.3c-0.1,0.2-0.2,0.3-0.3,0.3c-0.1,0.1-0.1,0.1-0.2,0.1c-0.3,0.2-0.7,0.4-1.1,0.5c-0.2,0-0.4,0.1-0.6,0.1
	c0,0-0.1,0-0.1,0.1c0,0,0,0.1,0.1,0.1c0.5,0.2,1,0.4,1.5,0.4s1.1-0.1,1.6-0.2c0.3-0.1,0.6-0.2,0.9-0.3c0.4-0.2,0.9-0.3,1.3-0.4
	c0.8-0.1,1.6-0.2,2.4-0.1c0.4,0.1,0.8,0.2,1.2,0.4c0.1,0.1,0.3,0.2,0.5,0.3c0.5,0.3,1.2-0.1,1.4-0.7c0-0.1,0-0.2-0.1-0.3
	s-0.2-0.3-0.4-0.4c-0.2-0.2-0.2-0.5-0.1-0.7c0.1-0.1,0.2-0.3,0.2-0.4c0.1-0.2,0.1-0.4-0.2-0.4c-0.5-0.1-0.9-0.2-1.4-0.2
	c-0.7,0.1-1.4,0.1-2.1,0.4h-0.1c0.1-0.1,0.2-0.1,0.3-0.2c0.5-0.2,1.1-0.3,1.6-0.4c0.6-0.1,1.3,0,1.9,0.2c0.2,0.1,0.4,0.2,0.6,0.3
	l0.1,0.1c0.4,0.7,0.4,1.5-0.1,2.2c0,0,0,0,0,0.1c-0.3,0.2-0.5,0.5-0.9,0.7c-0.1,0-0.2,0.1-0.3,0.2c-0.2,0.2-0.4,0.3-0.7,0.4
	c-0.7,0.2-1.4,0.1-2-0.3c-0.2-0.1-0.5-0.3-0.7-0.4c-0.2-0.1-0.4-0.2-0.5-0.3c-0.2-0.2-0.5-0.2-0.8-0.1c-0.5,0.1-0.9,0.3-1.4,0.4
	c-0.9,0.3-1.8,0.5-2.7,0.4c-0.3,0-0.5-0.1-0.8-0.2c-0.4-0.2-0.7-0.1-0.9,0.1c-0.2,0.2-0.5,0.4-0.7,0.5c-0.3,0.2-0.5,0.6-0.5,1
	c-0.1,0.4-0.1,0.9-0.2,1.3c0,0.1,0,0.1,0,0.2s0.1,0.1,0.2,0.1c0.2-0.1,0.5-0.2,0.7-0.3c0.6-0.3,1.1-0.5,1.7-0.8
	c0.5-0.3,1.1-0.5,1.7-0.5c0.2,0,0.3,0,0.5-0.1c0.6-0.1,1.1,0,1.7,0.1c0.4,0.1,0.7,0.3,1.1,0.4c0.2,0.1,0.4,0.2,0.6,0.2
	c0.2,0.1,0.5,0.1,0.7,0.1c0.1,0,0.1,0,0.2,0c0,0,0,0,0.1,0v0.1c-0.1,0.1-0.3,0.1-0.5,0.1s-0.3,0-0.5,0c-0.4,0-0.8,0.2-1.2,0.3
	c-0.6,0.3-1.1,0.6-1.7,0.8c-0.4,0.2-0.9,0.3-1.4,0.4c-1,0.2-1.9,0.1-2.8-0.4c-0.2-0.1-0.4-0.2-0.5-0.4c-0.1-0.1-0.2-0.1-0.3,0
	c-0.2,0.1-0.4,0.2-0.6,0.4c-0.1,0.1-0.1,0.2-0.2,0.2c0,0-0.1,0-0.1-0.1v-0.1c0.1-0.6,0-1.1-0.1-1.6c-0.2-0.7-0.5-1.3-0.9-1.9
	c-0.2-0.2-0.3-0.5-0.4-0.7c-0.1-0.1-0.2-0.2-0.3-0.3c-0.2-0.1-0.5-0.3-0.7-0.4c-0.3-0.1-0.6-0.2-0.9-0.1c-0.3,0.1-0.5,0.1-0.8,0.3
	c-0.1,0-0.2,0.1-0.4,0.1c-1,0.1-2-0.1-3-0.6c-0.6-0.3-1.1-0.8-1.5-1.3c-0.2-0.4-0.5-0.7-0.7-1.1c-0.2-0.3-0.4-0.5-0.7-0.7
	c-0.2-0.2-0.5-0.3-0.7-0.5c-0.2-0.1-0.3-0.2-0.4-0.4c0-0.1,0.1,0,0.1,0c0.2,0.1,0.4,0.3,0.6,0.4c0.6,0.5,1.4,0.7,2.2,0.9
	c0.5,0.1,1,0.2,1.4,0.2c0.9,0.2,1.7,0.5,2.5,0.9c0.3,0.2,0.5,0.3,0.7,0.6c0.1,0.1,0.1,0.1,0.2,0.2c0.3,0.4,0.7,0.6,1.1,0.8
	c0.2,0.1,0.4,0.2,0.6,0.3h0.1v-0.1c-0.1-0.3-0.2-0.6-0.5-0.7c-0.1,0-0.2-0.1-0.2-0.2c-0.2-0.2-0.5-0.5-0.7-0.7
	c-0.5-0.4-0.7-0.9-1-1.5c-0.2-0.5-0.3-1-0.4-1.6c0-0.1,0-0.3-0.1-0.4c-0.1-0.9,0.1-1.7,0.4-2.4c0.3-0.7,0.6-1.3,1-1.9
	c0.3-0.5,0.5-1.1,0.7-1.7c0.1-0.4,0.2-0.7,0.2-1.1c0-0.1,0-0.1,0.1-0.1c0,0,0,0,0.1,0l0,0v0.1c0,0.2,0,0.4-0.1,0.6
	c-0.1,0.5-0.2,0.9-0.3,1.3c-0.1,0.2-0.1,0.3-0.1,0.5c0,0.4,0,0.8,0.2,1.1c0.2,0.8,0.4,1.6,0.6,2.4c0,0.1,0.1,0.3,0.1,0.4
	c0.1,0.9,0.2,1.8,0.1,2.7c0,0.6-0.1,1.2,0,1.8c0,0.1,0,0.2,0,0.4s0.1,0.4,0.1,0.6c0,0.2,0,0.3,0.1,0.5c0.3,0.5,0.5,1,0.9,1.5
	c0.4,0.6,0.8,1.3,0.9,2.1C27.3,19.6,27.3,19.7,27.4,19.9"/>
<path class="st0" d="M12.8,33.9c0.1,0.2,0,0.7-0.1,0.8c-0.2,1.2-0.3,2.3-0.3,3.5c0,0.5-0.1,0.9-0.2,1.4c-0.1,0.2-0.3,0.9-0.3,0.8
	c-0.1-0.1,0.1-0.8,0.1-0.9c0.2-0.8,0.2-1.7,0.3-2.5c0-0.7,0.2-1.3,0.2-2C12.5,34.8,12.7,34.1,12.8,33.9"/>
<path class="st0" d="M30.6,20.3c0.2,0,0.5,0,0.9-0.1c0.2,0,0.5-0.1,0.8-0.2s0.6-0.3,0.7-0.4c0,0,0.2-0.1,0.4-0.2c0,0,0.2-0.1,0.4,0
	c0,0,0,0,0.1,0l0.1,0.1c0,0-0.1,0-0.2,0c-0.1,0-0.2,0-0.4,0.1c-0.4,0.1-0.6,0.4-1.2,0.6c-0.3,0.1-0.5,0.2-0.6,0.2s-0.2,0-0.3,0.1
	c0,0-0.5,0.1-1.2,0c0,0-0.1,0-0.2,0s-0.3-0.1-0.3-0.1s0.1,0,0.2,0C30,20.3,30.2,20.3,30.6,20.3"/>
</svg>
