<?xml version="1.0" encoding="utf-8"?>
<!-- Generator: Adobe Illustrator 23.0.1, SVG Export Plug-In . SVG Version: 6.00 Build 0)  -->
<svg version="1.1" id="Layer_1" xmlns="http://www.w3.org/2000/svg" xmlns:xlink="http://www.w3.org/1999/xlink" x="0px" y="0px"
	 viewBox="0 0 86 2" style="enable-background:new 0 0 86 2;" xml:space="preserve">
<style type="text/css">
	.st0{fill:#9D8640;}
</style>
<path class="st0" d="M-0.3,1c0,0,1.4,0,3.7-0.1c2.4,0,5.7-0.1,9.8-0.2c4.1,0,8.8-0.1,13.9-0.2c5.1,0,10.5,0,15.9-0.1
	c5.4,0,10.8,0,15.9,0.1c5.1,0,9.8,0.1,13.9,0.2c4.1,0.1,7.4,0.1,9.8,0.2C84.9,1,86.3,1,86.3,1s-1.4,0-3.7,0.1
	c-2.4,0-5.7,0.1-9.8,0.2c-4.1,0-8.8,0.1-13.9,0.2c-5.1,0-10.5,0-15.9,0.1c-5.4,0-10.8,0-15.9-0.1c-5.1,0-9.8-0.1-13.9-0.2
	C9.2,1.2,5.8,1.1,3.5,1.1C1.1,1-0.3,1-0.3,1"/>
</svg>
